<svg xmlns="http://www.w3.org/2000/svg" version="1.1" xmlns:xlink="http://www.w3.org/1999/xlink" xmlns:svgjs="http://svgjs.dev/svgjs" width="2000" height="1500" viewBox="0 0 2000 1500"><rect width="2000" height="1500" fill="#cf5260"></rect><g transform="matrix(0.75,0,0,0.75,249.09092727741745,282.7536437246963)"><svg viewBox="0 0 396 247" data-background-color="#cf5260" preserveAspectRatio="xMidYMid meet" height="1247" width="2000" xmlns="http://www.w3.org/2000/svg" xmlns:xlink="http://www.w3.org/1999/xlink"><g id="tight-bounds" transform="matrix(1,0,0,1,0.23999519876178965,-0.09999999999999432)"><svg viewBox="0 0 395.52 247.2" height="247.2" width="395.52"><g><svg></svg></g><g><svg viewBox="0 0 395.52 247.2" height="247.2" width="395.52"><g><g><path xmlns="http://www.w3.org/2000/svg" d="M297.842 231.993h85.23v15.207h-131.911l-16.132-52.567 75.855 0zM144.359 247.2h-131.911v-15.207h85.23l-13.042-37.36 75.855 0zM16.692 0h44.913l18.394 52.567-44.957 0zM179.017 0h37.486l16.303 52.567-70.092 0zM333.915 0h44.913l-18.35 52.567-44.957 0z" fill="#f0f0f0" fill-rule="nonzero" stroke="none" stroke-width="1" stroke-linecap="butt" stroke-linejoin="miter" stroke-miterlimit="10" stroke-dasharray="" stroke-dashoffset="0" font-family="none" font-weight="none" font-size="none" text-anchor="none" style="mix-blend-mode: normal" data-fill-palette-color="tertiary"></path></g></g><g transform="matrix(1,0,0,1,0,68.61422434367542)"><svg viewBox="0 0 395.52 109.97155131264915" height="109.97155131264915" width="395.52"><g><svg viewBox="0 0 395.52 109.97155131264915" height="109.97155131264915" width="395.52"><g><svg viewBox="0 0 395.52 109.97155131264915" height="109.97155131264915" width="395.52"><g><svg viewBox="0 0 395.52 109.97155131264915" height="109.97155131264915" width="395.52"><g><svg viewBox="0 0 395.52 109.97155131264915" height="109.97155131264915" width="395.52"><g><svg viewBox="0 0 395.52 109.97155131264915" height="109.97155131264915" width="395.52"><g transform="matrix(1,0,0,1,0,0)"><svg width="395.52" viewBox="0 -34.95000076293945 125.69999694824219 34.95000076293945" height="109.97155131264915" data-palette-color="#f0f0f0"><path d="M40.35-2.15L52.4-2.15 52.4 0 33.75 0 26.4-23.95 26-23.95 18.65 0 0 0 0-2.15 12.05-2.15 0.6-34.95 6.95-34.95 15.75-9.8 23.55-34.95 28.85-34.95 36.65-9.8 45.45-34.95 51.8-34.95 40.35-2.15ZM79.95-2.15L91.5-2.15 91.5 0 52.4 0 52.4-2.15 57.25-2.15 57.25-34.95 69.25-34.95Q78.65-34.95 83.7-30.38 88.75-25.8 88.75-17.5L88.75-17.5Q88.75-6.35 79.95-2.15L79.95-2.15ZM82.8-17.5L82.8-17.5Q82.8-29.5 69.05-29.5L69.05-29.5 63.15-29.5 63.15-5.55 69.7-5.55Q76.05-5.55 79.42-8.58 82.8-11.6 82.8-17.5ZM102.25-2.15L125.7-2.15 125.7 0 91.5 0 91.5-2.15 96.34-2.15 96.34-34.95 108.34-34.95Q116.3-34.95 119.95-31.9 123.59-28.85 123.59-22.5 123.59-16.15 119.87-13.2 116.15-10.25 108.45-10.25L108.45-10.25 102.25-10.25 102.25-2.15ZM109.09-15.6Q114-15.6 115.77-17.48 117.55-19.35 117.55-22.98 117.55-26.6 115.3-28.1 113.05-29.6 108.25-29.6L108.25-29.6 102.25-29.6 102.25-15.6 109.09-15.6Z" opacity="1" transform="matrix(1,0,0,1,0,0)" fill="#f0f0f0" class="undefined-text-0" data-fill-palette-color="primary" id="text-0"></path></svg></g></svg></g></svg></g></svg></g></svg></g></svg></g></svg></g></svg></g><defs></defs></svg><rect width="395.52" height="247.2" fill="none" stroke="none" visibility="hidden"></rect></g></svg></g></svg>